Coordinates
version=1
nRows=13
nColumns=36
inDegrees=yes

Units are S.I. units (second, meters, Newtons, ...)
If the header above contains a line with 'inDegrees', this indicates whether rotational values are in degrees (yes) or radians (no).

endheader
time	pelvis_tilt	pelvis_list	pelvis_rotation	pelvis_tx	pelvis_ty	pelvis_tz	hip_flexion_r	hip_adduction_r	hip_rotation_r	knee_angle_r	knee_angle_r_beta	ankle_angle_r	subtalar_angle_r	mtp_angle_r	hip_flexion_l	hip_adduction_l	hip_rotation_l	knee_angle_l	knee_angle_l_beta	ankle_angle_l	subtalar_angle_l	mtp_angle_l	lumbar_extension	lumbar_bending	lumbar_rotation	arm_flex_r	arm_add_r	arm_rot_r	elbow_flex_r	pro_sup_r	arm_flex_l	arm_add_l	arm_rot_l	elbow_flex_l	pro_sup_l
      0.00000000	      0.92697248	     -0.80181356	      7.62606735	     -0.13033183	      1.23492041	      0.30317696	      6.57344436	     -0.95732981	      3.11531927	     13.53821699	      0.23628646	      6.92247645	     -9.47039375	     -7.87109428	      7.71523798	     -3.26298605	     -0.54929055	     14.68159236	      0.25624213	      9.48058023	     -8.66594304	     -7.87109428	     -9.17470018	      1.06640825	     -1.50576788	     31.28494052	     -0.57287601	     53.90803929	    118.81223855	     87.69934361	     38.11791548	     -1.32119692	     64.01573617	    110.71827576	     89.53107156
      0.01666670	      1.00784313	     -0.82258632	      6.73255958	     -0.12870697	      1.23745255	      0.30179134	      7.11474885	     -0.80837469	      4.29860789	     13.87474070	      0.24215991	      9.30278365	     -7.89084831	     -7.76780709	      7.43611038	     -3.26173757	     -1.40857054	     14.12179539	      0.24647183	      8.98603478	     -8.90968566	     -7.76780709	    -10.19382310	      1.43619349	      0.16305751	     34.19773173	     -3.14377911	     61.42810371	    122.61040361	    100.51834439	     39.33906192	     -1.88570011	     63.07007230	    113.69570529	    104.07554042
      0.03333330	      0.78512200	     -0.81776999	      6.83750970	     -0.12772741	      1.23482557	      0.30107343	      7.33494746	     -0.77910346	      5.31414737	     13.63139219	      0.23791268	      9.99476137	     -8.21868385	     -7.72264986	      7.39421549	     -3.19170498	     -1.18379809	     12.94133068	      0.22586883	      8.25563077	     -9.76177606	     -7.72264986	     -9.89879941	      1.41138576	      0.05451202	     34.16078362	     -0.80855576	     60.02613250	    122.89773111	    103.18112430	     39.77046575	     -2.18023843	     63.57272911	    114.10408297	    108.10436903
      0.05000000	      0.61086315	     -0.84188874	      6.62575404	     -0.12796095	      1.23398126	      0.30056690	      7.88454669	     -1.00997397	      5.11652843	     13.48782277	      0.23540692	     10.31269387	     -7.97076864	     -7.69405475	      7.39843061	     -3.22684472	     -1.37193822	     12.32657968	      0.21513940	      8.23941704	     -9.95471427	     -7.69405475	     -9.70694305	      1.43557028	     -0.17646392	     33.98796000	      0.94635953	     58.93011857	    121.63171934	    103.37243635	     40.46177312	     -2.21171714	     63.57868245	    114.49129006	    108.81023526
      0.06666670	      0.44141035	     -0.96769323	      6.69856029	     -0.12788232	      1.23366601	      0.30017863	      8.36327512	     -0.94967497	      4.99196141	     13.94540075	      0.24339316	     10.92829904	     -7.63773946	     -7.67047954	      8.03279986	     -3.36610583	     -1.41220156	     13.11882019	      0.22896661	      8.74213166	    -10.23031627	     -7.67047954	     -9.58444250	      1.47130690	     -0.27281400	     33.63716139	      1.76252280	     58.18780064	    120.69918969	    102.89996024	     41.11354969	     -1.81698705	     63.67490680	    114.39435416	    108.54699611
      0.08333330	      0.06798029	     -1.10056879	      6.67152576	     -0.12818869	      1.23313879	      0.29984075	      9.16128777	     -0.94799170	      4.67719021	     14.76568318	      0.25770979	     11.10619761	     -7.32180531	     -7.64139801	      8.88699719	     -3.50135293	     -1.51048566	     14.20649380	      0.24795009	      9.11096000	    -10.49569704	     -7.64139801	     -9.30105355	      1.48072665	     -0.07864482	     33.10021395	      2.00927773	     57.91737290	    120.14463914	    102.12405835	     41.43154870	     -1.39263323	     64.08261011	    114.56344070	    108.01167490
      0.10000000	     -0.58815863	     -1.29818518	      6.63443085	     -0.12762215	      1.23252042	      0.29971066	     10.22762833	     -0.88901924	      4.13744663	     15.68142711	      0.27369253	     11.10377500	     -6.93495725	     -7.61304510	     10.12342726	     -3.69351709	     -1.77254744	     15.46213781	      0.26986521	      9.52522394	    -10.58812558	     -7.61304510	     -8.66245251	      1.59513791	      0.05334512	     32.39605598	      2.05778366	     57.79279842	    119.98927012	    101.18097313	     41.40740358	     -1.08968006	     64.47590882	    114.81612290	    107.59641472
      0.11666670	     -1.37777524	     -1.44952972	      6.54207849	     -0.12742021	      1.23138842	      0.29953498	     11.43377554	     -0.84908051	      3.76046177	     16.62114778	      0.29009375	     11.09390534	     -6.46639124	     -7.59383442	     11.44485044	     -3.77481222	     -1.92266792	     16.52314518	      0.28838329	      9.86780460	    -10.53079750	     -7.59383442	     -7.81498838	      1.62868936	      0.24507979	     31.62864873	      2.11843723	     58.17297882	    120.15017697	    100.44309058	     41.27564190	     -0.77359895	     64.90341736	    114.89735606	    106.56144988
      0.13333330	     -2.11516663	     -1.59896914	      6.40625658	     -0.12658008	      1.23034987	      0.29952982	     12.55241534	     -0.78569505	      3.40602545	     17.50342984	      0.30549248	     11.13031237	     -6.01296448	     -7.57534087	     12.61232103	     -3.88368128	     -2.18674132	     17.41545816	      0.30395709	     10.34524215	    -10.22528495	     -7.57534087	     -6.99494613	      1.72552697	      0.36948415	     30.97561442	      2.16643252	     58.47379450	    120.23971571	     99.34332572	     40.96869442	     -0.66186577	     64.30003381	    114.37791745	    106.40236129
      0.15000000	     -2.77226524	     -1.69378959	      6.39951640	     -0.12637302	      1.23264985	      0.29945973	     13.61169847	     -0.76741852	      3.24361842	     18.33783292	      0.32005556	     11.02537263	     -5.80413043	     -7.55716762	     13.67690289	     -3.93322757	     -2.45609099	     18.20597458	      0.31775420	     10.65517650	     -9.98915211	     -7.55716762	     -6.38466457	      1.76128702	      0.66328792	     30.88237974	      1.65721652	     58.58222948	    120.33631582	     99.57766571	     40.86625182	     -0.46827464	     64.58546213	    114.18234444	    105.46926722
      0.16666670	     -3.26389765	     -1.75092805	      6.25981797	     -0.12572917	      1.23188891	      0.29948976	     14.45207528	     -0.74737923	      3.09140897	     19.04503053	      0.33239849	     11.13047828	     -5.37397130	     -7.54796051	     14.46982471	     -3.99224986	     -2.84157330	     18.84238720	      0.32886170	     10.82917344	     -9.74092547	     -7.54796051	     -5.92899865	      1.81984544	      0.72939821	     31.08094573	      1.42337597	     58.67747599	    120.10780845	     98.96859922	     41.05236984	     -0.20201462	     64.46739671	    113.43393990	    105.20728974
      0.18333330	     -3.77526554	     -1.84582603	      6.17306777	     -0.12525913	      1.22759961	      0.29943720	     15.30010879	     -0.66109742	      3.07168347	     19.79374212	      0.34546597	     11.18184118	     -5.20333197	     -7.54338377	     15.28867841	     -4.09000834	     -3.13175758	     19.41299489	      0.33882068	     11.10758454	     -9.44105955	     -7.54338377	     -5.32698509	      1.85808893	      0.76274437	     31.21548005	      1.38332485	     58.64379896	    120.40175545	     98.10544958	     41.34844914	      0.17661270	     64.39928743	    112.92302133	    103.93407972
      0.20000000	     -4.26106103	     -1.94580175	      6.04962812	     -0.12439539	      1.22728436	      0.29959755	     15.98903064	     -0.60575754	      2.88106788	     20.26443080	      0.35368104	     11.39338254	     -4.82536249	     -7.54090995	     15.99564690	     -4.19422632	     -3.33787788	     19.75589002	      0.34480533	     11.20806083	     -9.36493840	     -7.54090995	     -4.75093316	      1.96214765	      0.70275116	     31.40045029	      1.45370297	     58.63080946	    120.63121834	     98.10911738	     41.36521307	      0.39062564	     64.13636248	    112.70509172	    104.98885272
